<svg xmlns="http://www.w3.org/2000/svg" xmlns:xlink="http://www.w3.org/1999/xlink" width="500" zoomAndPan="magnify" viewBox="0 0 375 374.999991" height="500" preserveAspectRatio="xMidYMid meet" version="1.0"><defs><g/></defs><rect x="-37.5" width="450" fill="#ffffff" y="-37.499999" height="449.999989" fill-opacity="1"/><rect x="-37.5" width="450" fill="#15161d" y="-37.499999" height="449.999989" fill-opacity="1"/><rect x="-37.5" width="450" fill="#ffffff" y="-37.499999" height="449.999989" fill-opacity="1"/><rect x="-37.5" width="450" fill="#15161d" y="-37.499999" height="449.999989" fill-opacity="1"/><g fill="#657ced" fill-opacity="1"><g transform="translate(11.138805, 191.521497)"><g><path d="M 35.28125 -9.828125 L 35.28125 0 L 3.140625 0 L 3.140625 -38.640625 L 34.5625 -38.640625 L 34.5625 -28.8125 L 15.953125 -28.8125 L 15.953125 -24.296875 L 32.296875 -24.296875 L 32.296875 -14.90625 L 15.953125 -14.90625 L 15.953125 -9.828125 Z M 35.28125 -9.828125 "/></g></g></g><g fill="#657ced" fill-opacity="1"><g transform="translate(48.285306, 191.521497)"><g><path d="M 37.65625 0 L 37.53125 -17.609375 L 29.140625 -3.484375 L 23.40625 -3.484375 L 15.015625 -17 L 15.015625 0 L 3.140625 0 L 3.140625 -38.640625 L 13.859375 -38.640625 L 26.4375 -18.046875 L 38.703125 -38.640625 L 49.40625 -38.640625 L 49.515625 0 Z M 37.65625 0 "/></g></g></g><g fill="#657ced" fill-opacity="1"><g transform="translate(100.941709, 191.521497)"><g><path d="M 21.75 -38.640625 C 25.320312 -38.640625 28.429688 -38.050781 31.078125 -36.875 C 33.722656 -35.695312 35.765625 -34.003906 37.203125 -31.796875 C 38.640625 -29.585938 39.359375 -27.007812 39.359375 -24.0625 C 39.359375 -21.125 38.640625 -18.550781 37.203125 -16.34375 C 35.765625 -14.132812 33.722656 -12.441406 31.078125 -11.265625 C 28.429688 -10.085938 25.320312 -9.5 21.75 -9.5 L 16.171875 -9.5 L 16.171875 0 L 3.140625 0 L 3.140625 -38.640625 Z M 20.921875 -19.546875 C 22.691406 -19.546875 24.015625 -19.941406 24.890625 -20.734375 C 25.773438 -21.523438 26.21875 -22.632812 26.21875 -24.0625 C 26.21875 -25.5 25.773438 -26.613281 24.890625 -27.40625 C 24.015625 -28.195312 22.691406 -28.59375 20.921875 -28.59375 L 16.171875 -28.59375 L 16.171875 -19.546875 Z M 20.921875 -19.546875 "/></g></g></g><g fill="#657ced" fill-opacity="1"><g transform="translate(141.951884, 191.521497)"><g><path d="M 23.40625 0.890625 C 19.25 0.890625 15.515625 0.0234375 12.203125 -1.703125 C 8.890625 -3.441406 6.289062 -5.847656 4.40625 -8.921875 C 2.53125 -11.992188 1.59375 -15.460938 1.59375 -19.328125 C 1.59375 -23.191406 2.53125 -26.660156 4.40625 -29.734375 C 6.289062 -32.804688 8.890625 -35.207031 12.203125 -36.9375 C 15.515625 -38.664062 19.25 -39.53125 23.40625 -39.53125 C 27.5625 -39.53125 31.296875 -38.664062 34.609375 -36.9375 C 37.921875 -35.207031 40.515625 -32.804688 42.390625 -29.734375 C 44.273438 -26.660156 45.21875 -23.191406 45.21875 -19.328125 C 45.21875 -15.460938 44.273438 -11.992188 42.390625 -8.921875 C 40.515625 -5.847656 37.921875 -3.441406 34.609375 -1.703125 C 31.296875 0.0234375 27.5625 0.890625 23.40625 0.890625 Z M 23.40625 -9.65625 C 25.019531 -9.65625 26.476562 -10.050781 27.78125 -10.84375 C 29.09375 -11.632812 30.132812 -12.753906 30.90625 -14.203125 C 31.6875 -15.660156 32.078125 -17.367188 32.078125 -19.328125 C 32.078125 -21.273438 31.6875 -22.972656 30.90625 -24.421875 C 30.132812 -25.878906 29.09375 -27.003906 27.78125 -27.796875 C 26.476562 -28.585938 25.019531 -28.984375 23.40625 -28.984375 C 21.789062 -28.984375 20.328125 -28.585938 19.015625 -27.796875 C 17.710938 -27.003906 16.671875 -25.878906 15.890625 -24.421875 C 15.117188 -22.972656 14.734375 -21.273438 14.734375 -19.328125 C 14.734375 -17.367188 15.117188 -15.660156 15.890625 -14.203125 C 16.671875 -12.753906 17.710938 -11.632812 19.015625 -10.84375 C 20.328125 -10.050781 21.789062 -9.65625 23.40625 -9.65625 Z M 23.40625 -9.65625 "/></g></g></g><g fill="#657ced" fill-opacity="1"><g transform="translate(188.757575, 191.521497)"><g><path d="M 19.703125 -9.71875 L 16.171875 -9.71875 L 16.171875 0 L 3.140625 0 L 3.140625 -38.640625 L 21.75 -38.640625 C 25.320312 -38.640625 28.429688 -38.050781 31.078125 -36.875 C 33.722656 -35.695312 35.765625 -34.003906 37.203125 -31.796875 C 38.640625 -29.585938 39.359375 -27.007812 39.359375 -24.0625 C 39.359375 -21.300781 38.734375 -18.890625 37.484375 -16.828125 C 36.234375 -14.773438 34.429688 -13.140625 32.078125 -11.921875 L 40.1875 0 L 26.28125 0 Z M 26.21875 -24.0625 C 26.21875 -25.5 25.773438 -26.613281 24.890625 -27.40625 C 24.015625 -28.195312 22.691406 -28.59375 20.921875 -28.59375 L 16.171875 -28.59375 L 16.171875 -19.546875 L 20.921875 -19.546875 C 22.691406 -19.546875 24.015625 -19.941406 24.890625 -20.734375 C 25.773438 -21.523438 26.21875 -22.632812 26.21875 -24.0625 Z M 26.21875 -24.0625 "/></g></g></g><g fill="#657ced" fill-opacity="1"><g transform="translate(229.87814, 191.521497)"><g><path d="M 3.140625 -38.640625 L 16.171875 -38.640625 L 16.171875 0 L 3.140625 0 Z M 3.140625 -38.640625 "/></g></g></g><g fill="#657ced" fill-opacity="1"><g transform="translate(249.196521, 191.521497)"><g><path d="M 21.640625 0.890625 C 15.710938 0.890625 11.09375 -0.707031 7.78125 -3.90625 C 4.46875 -7.113281 2.8125 -11.609375 2.8125 -17.390625 L 2.8125 -38.640625 L 15.84375 -38.640625 L 15.84375 -17.78125 C 15.84375 -14.945312 16.347656 -12.882812 17.359375 -11.59375 C 18.367188 -10.300781 19.832031 -9.65625 21.75 -9.65625 C 23.664062 -9.65625 25.128906 -10.300781 26.140625 -11.59375 C 27.148438 -12.882812 27.65625 -14.945312 27.65625 -17.78125 L 27.65625 -38.640625 L 40.46875 -38.640625 L 40.46875 -17.390625 C 40.46875 -11.609375 38.8125 -7.113281 35.5 -3.90625 C 32.1875 -0.707031 27.566406 0.890625 21.640625 0.890625 Z M 21.640625 0.890625 "/></g></g></g><g fill="#657ced" fill-opacity="1"><g transform="translate(292.469719, 191.521497)"><g><path d="M 37.65625 0 L 37.53125 -17.609375 L 29.140625 -3.484375 L 23.40625 -3.484375 L 15.015625 -17 L 15.015625 0 L 3.140625 0 L 3.140625 -38.640625 L 13.859375 -38.640625 L 26.4375 -18.046875 L 38.703125 -38.640625 L 49.40625 -38.640625 L 49.515625 0 Z M 37.65625 0 "/></g></g></g><g fill="#657ced" fill-opacity="1"><g transform="translate(345.126133, 191.521497)"><g><path d="M 8.390625 0.546875 C 6.296875 0.546875 4.554688 -0.125 3.171875 -1.46875 C 1.796875 -2.8125 1.109375 -4.53125 1.109375 -6.625 C 1.109375 -8.71875 1.796875 -10.414062 3.171875 -11.71875 C 4.554688 -13.03125 6.296875 -13.6875 8.390625 -13.6875 C 10.484375 -13.6875 12.21875 -13.03125 13.59375 -11.71875 C 14.976562 -10.414062 15.671875 -8.71875 15.671875 -6.625 C 15.671875 -4.53125 14.976562 -2.8125 13.59375 -1.46875 C 12.21875 -0.125 10.484375 0.546875 8.390625 0.546875 Z M 8.390625 0.546875 "/></g></g></g><g fill="#ffffff" fill-opacity="1"><g transform="translate(90.662241, 183.707419)"><g><path d="M 16.304688 0.179688 C 31.136719 -6.386719 40.203125 -26.847656 45.472656 -40.023438 C 45.519531 -40.246094 45.742188 -40.335938 45.964844 -40.292969 C 46.1875 -40.246094 46.324219 -40.023438 46.324219 -39.800781 C 44.714844 -26.265625 41.5 -8.621094 40.695312 -4.378906 C 40.605469 -3.886719 40.875 -3.351562 41.363281 -3.125 C 41.855469 -2.902344 42.4375 -3.039062 42.75 -3.441406 C 48.332031 -10.183594 58.339844 -26.488281 64.996094 -37.746094 C 65.128906 -37.925781 65.398438 -38.015625 65.574219 -37.925781 C 65.800781 -37.835938 65.886719 -37.613281 65.84375 -37.390625 C 60.394531 -17.511719 56.953125 -0.804688 63.476562 1.25 C 64.101562 1.429688 64.773438 1.070312 64.949219 0.445312 C 65.128906 -0.179688 64.816406 -0.804688 64.191406 -1.027344 C 58.429688 -2.769531 66.691406 -31.851562 70.222656 -44.222656 C 70.710938 -46.097656 71.203125 -47.796875 71.652344 -49.359375 C 71.785156 -49.941406 71.472656 -50.523438 70.9375 -50.746094 C 70.355469 -50.96875 69.730469 -50.746094 69.460938 -50.210938 C 67.941406 -47.261719 54.898438 -24.703125 45.785156 -11.480469 C 45.609375 -11.167969 45.207031 -11.078125 44.894531 -11.210938 C 44.582031 -11.347656 44.402344 -11.660156 44.445312 -12.015625 C 46.367188 -22.828125 49.269531 -40.738281 49.496094 -50.164062 C 49.539062 -50.699219 49.183594 -51.191406 48.644531 -51.324219 C 48.109375 -51.460938 47.574219 -51.191406 47.304688 -50.699219 C 46.636719 -49.40625 45.742188 -47.171875 44.625 -44.3125 C 39.757812 -31.894531 30.644531 -8.710938 15.367188 -1.964844 C 10.898438 0 7.59375 -0.894531 5.941406 -2.367188 C 4.691406 -3.484375 4.242188 -5.226562 4.78125 -6.789062 C 5.851562 -9.960938 10.230469 -12.148438 16.4375 -12.6875 C 16.75 -12.6875 17.019531 -12.820312 17.242188 -13.089844 C 17.421875 -13.3125 17.554688 -13.625 17.511719 -13.9375 C 17.464844 -14.5625 16.886719 -15.054688 16.261719 -15.007812 C 5.894531 -14.117188 3.214844 -9.515625 2.546875 -7.59375 C 1.699219 -5.09375 2.414062 -2.367188 4.378906 -0.625 C 6.03125 0.804688 8.175781 1.609375 10.40625 1.519531 C 12.417969 1.472656 14.472656 1.027344 16.304688 0.179688 Z M 16.304688 0.179688 "/></g></g></g><g fill="#ffffff" fill-opacity="1"><g transform="translate(159.528283, 183.707419)"><g><path d="M 37.34375 -10.808594 C 36.898438 -11.300781 36.136719 -11.347656 35.648438 -10.898438 C 35.511719 -10.765625 22.246094 1.160156 14.027344 -4.242188 C 10.765625 -6.386719 9.960938 -11.570312 9.960938 -11.613281 C 9.917969 -12.148438 9.515625 -12.550781 8.980469 -12.640625 C 8.488281 -12.6875 7.953125 -12.417969 7.726562 -11.972656 C 5.628906 -7.324219 1.921875 -1.429688 0.894531 -2.097656 C 0.804688 -2.097656 0.625 -2.277344 0.492188 -2.589844 C -0.0429688 -4.066406 0.132812 -5.671875 0.894531 -7.058594 C 2.589844 -10.542969 5.71875 -13.042969 9.46875 -13.980469 C 9.871094 -14.070312 10.183594 -14.382812 10.320312 -14.785156 C 10.453125 -15.1875 10.320312 -15.632812 10.050781 -15.945312 C 9.738281 -16.214844 9.335938 -16.347656 8.933594 -16.261719 C 4.46875 -15.1875 0.757812 -12.148438 -1.25 -8.039062 C -2.324219 -6.03125 -2.457031 -3.617188 -1.609375 -1.519531 C -1.207031 -0.492188 -0.222656 0.222656 0.894531 0.222656 L 0.9375 0.222656 C 3.125 0.179688 5.851562 -2.546875 7.726562 -5.496094 C 7.953125 -5.851562 8.351562 -6.03125 8.753906 -5.984375 C 9.15625 -5.984375 9.515625 -5.761719 9.695312 -5.40625 C 10.453125 -4.15625 11.480469 -3.082031 12.730469 -2.324219 C 22.46875 4.15625 36.628906 -8.621094 37.253906 -9.15625 C 37.476562 -9.378906 37.613281 -9.695312 37.613281 -9.960938 C 37.65625 -10.273438 37.523438 -10.585938 37.34375 -10.808594 Z M 37.34375 -10.808594 "/></g></g></g><g fill="#ffffff" fill-opacity="1"><g transform="translate(195.613733, 183.707419)"><g><path d="M 39.042969 -11.121094 C 38.773438 -11.300781 38.503906 -11.433594 38.191406 -11.433594 C 37.878906 -11.390625 37.566406 -11.257812 37.390625 -11.035156 C 37.253906 -10.945312 27.425781 -0.445312 18.894531 -3.886719 C 17.0625 -4.867188 15.589844 -6.34375 14.5625 -8.175781 C 14.203125 -8.753906 13.757812 -9.335938 13.222656 -9.871094 C 12.640625 -10.585938 11.75 -10.988281 10.808594 -11.035156 C 8.53125 -11.210938 5.761719 -9.695312 2.457031 -6.566406 C 2.367188 -6.476562 2.234375 -6.433594 2.097656 -6.523438 C 1.964844 -6.566406 1.875 -6.746094 1.921875 -6.878906 L 2.902344 -11.257812 C 3.082031 -11.882812 2.679688 -12.550781 2.054688 -12.6875 C 1.429688 -12.820312 0.804688 -12.417969 0.625 -11.792969 L -1.609375 -2.011719 C -1.742188 -1.472656 -1.472656 -0.9375 -0.984375 -0.714844 C -0.492188 -0.445312 0.0898438 -0.582031 0.445312 -0.984375 C 6.433594 -7.996094 9.46875 -8.664062 10.542969 -8.710938 C 11.613281 -8.753906 12.285156 -7.371094 12.640625 -6.835938 C 13.890625 -4.644531 15.769531 -2.859375 18.003906 -1.742188 C 28.007812 2.324219 38.640625 -8.980469 39.085938 -9.46875 C 39.53125 -9.917969 39.488281 -10.675781 39.042969 -11.121094 Z M 39.042969 -11.121094 "/></g></g></g><g fill="#ffffff" fill-opacity="1"><g transform="translate(232.815681, 183.707419)"><g><path d="M 31.089844 -11.75 C 30.597656 -12.195312 29.839844 -12.148438 29.4375 -11.660156 C 25.910156 -7.996094 20.191406 -7.636719 16.261719 -10.808594 C 15.320312 -11.480469 14.027344 -11.433594 13.175781 -10.632812 C 12.6875 -10.183594 12.148438 -9.695312 11.613281 -9.113281 C 9.917969 -7.191406 9.605469 -8.800781 9.605469 -9.871094 C 9.605469 -10.808594 9.425781 -11.792969 9.113281 -12.6875 C 8.933594 -13.132812 8.488281 -13.445312 7.996094 -13.445312 C 7.503906 -13.402344 7.101562 -13.132812 6.925781 -12.640625 C 5.671875 -9.15625 2.992188 -4.066406 1.117188 -3.707031 C 0.984375 -3.664062 0.625 -3.617188 0.0898438 -4.199219 C -0.179688 -5.359375 0 -6.609375 0.582031 -7.683594 C 1.921875 -11.300781 5.226562 -13.847656 9.066406 -14.203125 C 9.738281 -14.25 10.230469 -14.832031 10.183594 -15.457031 C 10.140625 -16.125 9.558594 -16.617188 8.933594 -16.574219 C 4.15625 -16.125 0.0429688 -13 -1.652344 -8.488281 C -2.414062 -6.523438 -2.859375 -3.929688 -1.652344 -2.636719 C -0.847656 -1.652344 0.355469 -1.207031 1.5625 -1.429688 C 3.796875 -1.875 5.808594 -4.824219 7.238281 -7.503906 C 7.148438 -6.433594 7.011719 -5.226562 6.835938 -3.976562 C 6.789062 -3.707031 6.699219 -3.484375 6.566406 -3.304688 C 1.339844 3.304688 -3.394531 11.300781 -3.484375 16.347656 C -3.617188 17.6875 -3.125 19.03125 -2.234375 20.011719 C -1.785156 20.457031 -1.25 20.683594 -0.671875 20.683594 C -0.179688 20.683594 0.3125 20.546875 0.714844 20.28125 C 3.664062 18.316406 7.414062 6.835938 8.890625 -2.277344 C 8.933594 -2.457031 9.023438 -2.636719 9.15625 -2.8125 C 10.722656 -4.734375 12.375 -6.566406 14.117188 -8.308594 C 14.519531 -8.710938 15.144531 -8.753906 15.589844 -8.441406 C 20.503906 -5.136719 27.023438 -5.851562 31.136719 -10.09375 C 31.535156 -10.585938 31.535156 -11.300781 31.089844 -11.75 Z M 1.339844 15.546875 C 0.3125 17.601562 -0.0429688 18.492188 -0.582031 18.316406 C -1.117188 18.179688 -1.160156 17.289062 -1.117188 16.394531 C -1.027344 12.953125 4.957031 1.296875 5.808594 1.652344 C 6.65625 2.011719 3.039062 12.015625 1.339844 15.546875 Z M 1.339844 15.546875 "/></g></g></g><g fill="#ffffff" fill-opacity="1"><g transform="translate(262.246759, 183.707419)"><g><path d="M 32.5625 -12.6875 C 32.339844 -12.910156 32.074219 -13 31.761719 -13 C 31.449219 -13 31.136719 -12.910156 30.910156 -12.6875 C 25.550781 -7.324219 17.957031 -4.867188 10.496094 -6.121094 C 9.917969 -6.253906 9.515625 -6.789062 9.605469 -7.371094 C 9.960938 -9.515625 9.78125 -11.703125 8.53125 -12.417969 C 7.726562 -12.863281 6.523438 -12.910156 5.09375 -10.496094 C 4.554688 -9.695312 4.378906 -8.710938 4.554688 -7.773438 C 4.78125 -6.835938 5.359375 -5.984375 6.164062 -5.496094 C 6.65625 -5.09375 6.074219 -4.421875 5.761719 -4.109375 C 4.914062 -3.082031 3.441406 -2.902344 2.414062 -3.707031 C 1.117188 -4.289062 0.535156 -5.71875 1.027344 -7.011719 C 1.609375 -9.378906 3.929688 -11.433594 4.78125 -11.433594 C 5.40625 -11.433594 5.941406 -11.972656 5.941406 -12.597656 C 5.984375 -13.222656 5.449219 -13.757812 4.824219 -13.804688 L 4.78125 -13.804688 C 2.546875 -13.804688 -0.445312 -10.765625 -1.25 -7.59375 C -2.011719 -5.269531 -0.9375 -2.726562 1.296875 -1.652344 C 2.144531 -1.160156 3.082031 -0.9375 4.066406 -0.894531 C 5.984375 -0.984375 7.683594 -2.144531 8.488281 -3.929688 C 8.578125 -4.066406 8.800781 -4.15625 8.980469 -4.109375 C 14.652344 -2.414062 25.015625 -3.484375 32.5625 -10.988281 C 32.789062 -11.210938 32.921875 -11.523438 32.921875 -11.835938 C 32.921875 -12.148438 32.789062 -12.464844 32.5625 -12.6875 Z M 7.28125 -7.59375 C 6.789062 -8.039062 6.699219 -8.753906 7.101562 -9.292969 C 7.238281 -9.515625 7.324219 -9.648438 7.414062 -9.78125 C 7.460938 -9.066406 7.414062 -8.308594 7.28125 -7.59375 Z M 7.28125 -7.59375 "/></g></g></g><g fill="#d9d9d9" fill-opacity="1"><g transform="translate(137.355465, 215.838091)"><g><path d="M 8.746094 0 C 8.988281 0 9.128906 -0.128906 9.128906 -0.382812 L 9.128906 -1.328125 C 9.128906 -1.570312 8.988281 -1.710938 8.746094 -1.710938 L 3.25 -1.710938 L 3.25 -4.585938 L 7.996094 -4.585938 C 8.238281 -4.585938 8.378906 -4.71875 8.378906 -4.96875 L 8.378906 -5.875 C 8.378906 -6.128906 8.238281 -6.257812 7.996094 -6.257812 L 3.25 -6.257812 L 3.25 -12.640625 L 8.746094 -12.640625 C 8.988281 -12.640625 9.128906 -12.78125 9.128906 -13.023438 L 9.128906 -13.964844 C 9.128906 -14.21875 8.988281 -14.347656 8.746094 -14.347656 L 1.804688 -14.347656 C 1.550781 -14.347656 1.421875 -14.21875 1.421875 -13.964844 L 1.421875 -0.382812 C 1.421875 -0.128906 1.550781 0 1.804688 0 Z M 8.746094 0 "/></g></g></g><g fill="#d9d9d9" fill-opacity="1"><g transform="translate(147.226131, 215.838091)"><g><path d="M 2.867188 0 C 3.121094 0 3.25 -0.128906 3.25 -0.382812 L 3.25 -10.15625 L 7.882812 -3.832031 C 8.042969 -3.605469 8.269531 -3.605469 8.425781 -3.832031 L 13.070312 -10.15625 L 13.070312 -0.382812 C 13.070312 -0.128906 13.199219 0 13.453125 0 L 14.5 0 C 14.75 0 14.882812 -0.128906 14.882812 -0.382812 L 14.882812 -14.058594 C 14.882812 -14.777344 14.367188 -14.9375 13.949219 -14.347656 L 8.15625 -6.398438 L 2.371094 -14.347656 C 1.941406 -14.9375 1.4375 -14.777344 1.4375 -14.058594 L 1.4375 -0.382812 C 1.4375 -0.128906 1.570312 0 1.820312 0 Z M 2.867188 0 "/></g></g></g><g fill="#d9d9d9" fill-opacity="1"><g transform="translate(163.540278, 215.838091)"><g><path d="M 2.847656 0 C 3.101562 0 3.230469 -0.128906 3.230469 -0.382812 L 3.230469 -4.484375 L 5.707031 -4.484375 C 9.390625 -4.484375 11.210938 -6.164062 11.210938 -9.433594 C 11.210938 -12.621094 9.472656 -14.347656 5.585938 -14.347656 L 1.804688 -14.347656 C 1.550781 -14.347656 1.421875 -14.21875 1.421875 -13.964844 L 1.421875 -0.382812 C 1.421875 -0.128906 1.550781 0 1.804688 0 Z M 3.230469 -12.640625 L 5.472656 -12.640625 C 6.671875 -12.640625 9.425781 -12.613281 9.425781 -9.425781 C 9.425781 -6.222656 6.632812 -6.195312 5.472656 -6.195312 L 3.230469 -6.195312 Z M 3.230469 -12.640625 "/></g></g></g><g fill="#d9d9d9" fill-opacity="1"><g transform="translate(175.437372, 215.838091)"><g><path d="M 8.277344 0.300781 C 12.433594 0.300781 15.75 -2.773438 15.75 -7.175781 C 15.75 -11.566406 12.433594 -14.648438 8.277344 -14.648438 C 4.121094 -14.648438 0.8125 -11.566406 0.8125 -7.175781 C 0.8125 -2.773438 4.121094 0.300781 8.277344 0.300781 Z M 8.277344 -1.464844 C 5.167969 -1.464844 2.644531 -3.800781 2.644531 -7.175781 C 2.644531 -10.566406 5.15625 -12.882812 8.277344 -12.882812 C 11.386719 -12.882812 13.910156 -10.566406 13.910156 -7.175781 C 13.910156 -3.785156 11.386719 -1.464844 8.277344 -1.464844 Z M 8.277344 -1.464844 "/></g></g></g><g fill="#d9d9d9" fill-opacity="1"><g transform="translate(192.003655, 215.838091)"><g><path d="M 8.714844 -5.015625 C 10.378906 -5.746094 11.210938 -7.230469 11.210938 -9.433594 C 11.210938 -12.621094 9.472656 -14.347656 5.585938 -14.347656 L 1.804688 -14.347656 C 1.550781 -14.347656 1.421875 -14.21875 1.421875 -13.964844 L 1.421875 -0.382812 C 1.421875 -0.128906 1.550781 0 1.804688 0 L 2.847656 0 C 3.101562 0 3.230469 -0.128906 3.230469 -0.382812 L 3.230469 -4.484375 L 5.707031 -4.484375 C 6.136719 -4.484375 6.539062 -4.503906 6.921875 -4.550781 L 9.070312 -0.289062 C 9.164062 -0.09375 9.304688 0 9.511719 0 L 10.761719 0 C 11.050781 0 11.183594 -0.1875 11.042969 -0.457031 Z M 3.230469 -6.195312 L 3.230469 -12.640625 L 5.472656 -12.640625 C 6.671875 -12.640625 9.425781 -12.613281 9.425781 -9.425781 C 9.425781 -6.222656 6.632812 -6.195312 5.472656 -6.195312 Z M 3.230469 -6.195312 "/></g></g></g><g fill="#d9d9d9" fill-opacity="1"><g transform="translate(204.190238, 215.838091)"><g><path d="M 2.867188 0 C 3.109375 0 3.25 -0.128906 3.25 -0.382812 L 3.25 -13.964844 C 3.25 -14.21875 3.109375 -14.347656 2.867188 -14.347656 L 1.804688 -14.347656 C 1.550781 -14.347656 1.421875 -14.21875 1.421875 -13.964844 L 1.421875 -0.382812 C 1.421875 -0.128906 1.550781 0 1.804688 0 Z M 2.867188 0 "/></g></g></g><g fill="#d9d9d9" fill-opacity="1"><g transform="translate(208.850089, 215.838091)"><g><path d="M 6.242188 0.300781 C 8.960938 0.300781 11.171875 -1.128906 11.171875 -4.566406 L 11.171875 -13.964844 C 11.171875 -14.21875 11.042969 -14.347656 10.789062 -14.347656 L 9.707031 -14.347656 C 9.464844 -14.347656 9.324219 -14.21875 9.324219 -13.964844 L 9.324219 -4.738281 C 9.324219 -2.261719 8.128906 -1.4375 6.242188 -1.4375 C 4.382812 -1.4375 3.167969 -2.261719 3.167969 -4.738281 L 3.167969 -13.964844 C 3.167969 -14.21875 3.027344 -14.347656 2.785156 -14.347656 L 1.699219 -14.347656 C 1.449219 -14.347656 1.316406 -14.21875 1.316406 -13.964844 L 1.316406 -4.566406 C 1.316406 -1.128906 3.558594 0.300781 6.242188 0.300781 Z M 6.242188 0.300781 "/></g></g></g><g fill="#d9d9d9" fill-opacity="1"><g transform="translate(221.335501, 215.838091)"><g><path d="M 2.867188 0 C 3.121094 0 3.25 -0.128906 3.25 -0.382812 L 3.25 -10.15625 L 7.882812 -3.832031 C 8.042969 -3.605469 8.269531 -3.605469 8.425781 -3.832031 L 13.070312 -10.15625 L 13.070312 -0.382812 C 13.070312 -0.128906 13.199219 0 13.453125 0 L 14.5 0 C 14.75 0 14.882812 -0.128906 14.882812 -0.382812 L 14.882812 -14.058594 C 14.882812 -14.777344 14.367188 -14.9375 13.949219 -14.347656 L 8.15625 -6.398438 L 2.371094 -14.347656 C 1.941406 -14.9375 1.4375 -14.777344 1.4375 -14.058594 L 1.4375 -0.382812 C 1.4375 -0.128906 1.570312 0 1.820312 0 Z M 2.867188 0 "/></g></g></g><path stroke-linecap="butt" transform="matrix(2.263118, 0, 0, 2.25, 62.736461, 208.869053)" fill="none" stroke-linejoin="miter" d="M 0.000804231 -0.000829326 L 20.547682 -0.000829326 " stroke="#d9d9d9" stroke-width="1" stroke-opacity="1" stroke-miterlimit="4"/><path stroke-linecap="butt" transform="matrix(2.256059, 0, 0, 2.25, 262.436589, 208.869053)" fill="none" stroke-linejoin="miter" d="M 0.000403861 -0.000829326 L 21.281639 -0.000829326 " stroke="#d9d9d9" stroke-width="1" stroke-opacity="1" stroke-miterlimit="4"/></svg>